<?xml version="1.0" encoding="UTF-8"?>
<svg id="_레이어_2" data-name="레이어 2" xmlns="http://www.w3.org/2000/svg" viewBox="0 0 55.13 64.92">
  <defs>
    <style>
      .cls-1 {
        fill: #54743b;
      }
    </style>
  </defs>
  <g id="_레이어_1-2" data-name="레이어 1">
    <g>
      <g>
        <path class="cls-1" d="M1.56,62.02v2.69H0v-7.57H3.38c.8,0,1.4,.21,1.81,.62,.41,.41,.62,1.02,.62,1.82s-.2,1.38-.6,1.81c-.4,.42-.98,.64-1.72,.64H1.56Zm.01-1.37h1.51c.41,0,.71-.09,.89-.26,.19-.17,.28-.45,.28-.84,0-.36-.09-.63-.27-.82-.18-.19-.45-.28-.81-.28H1.57v2.19Z"/>
        <path class="cls-1" d="M8.62,64.71v-6.22h-2.25v-1.35h6.05v1.35h-2.24v6.22h-1.56Z"/>
        <path class="cls-1" d="M14.86,57.14h1.81l2.74,7.57h-1.64l-.52-1.56h-2.94l-.5,1.56h-1.65l2.7-7.57Zm.91,1.52l-1.05,3.22h2.11l-1.06-3.22Z"/>
        <path class="cls-1" d="M20.19,64.71v-7.57h1.57v2.82h3.14v-2.82h1.57v7.57h-1.57v-3.36h-3.14v3.36h-1.57Z"/>
        <path class="cls-1" d="M31.1,64.71v-7.57h.72v6.95h3.88v.62h-4.6Z"/>
        <path class="cls-1" d="M35.7,64.71l2.88-7.57h.84l2.88,7.57h-.73l-.86-2.33h-3.4l-.88,2.33h-.73Zm1.83-2.94h2.95l-1.48-3.9-1.47,3.9Z"/>
        <path class="cls-1" d="M43.11,64.71v-7.57h2.51c.44,0,.78,.02,1.04,.07,.26,.05,.48,.13,.66,.24,.29,.16,.51,.38,.68,.67,.16,.29,.24,.61,.24,.96,0,.38-.1,.71-.3,.99s-.48,.5-.83,.64c.46,.1,.82,.32,1.09,.67,.26,.35,.39,.78,.39,1.29,0,.44-.11,.83-.32,1.16-.21,.33-.5,.57-.88,.71-.15,.06-.38,.11-.69,.13s-.81,.04-1.5,.04h-2.1Zm2.39-6.95h-1.69v2.74h1.62c.78,0,1.33-.1,1.64-.31,.31-.21,.46-.56,.46-1.06s-.15-.85-.44-1.05c-.29-.21-.82-.31-1.59-.31Zm-1.69,6.33h2.05c.76,0,1.28-.11,1.58-.33s.44-.59,.44-1.12-.17-.9-.5-1.16c-.33-.26-.82-.39-1.46-.39h-2.1v3Z"/>
        <path class="cls-1" d="M49.7,62.42h.7c0,.6,.2,1.06,.57,1.39,.37,.33,.89,.49,1.57,.49,.59,0,1.06-.13,1.4-.4,.34-.27,.51-.63,.51-1.1,0-.43-.12-.76-.36-.99-.24-.23-.71-.43-1.42-.61l-.72-.18c-.78-.2-1.31-.45-1.61-.76-.3-.31-.45-.74-.45-1.29,0-.61,.23-1.11,.68-1.48,.45-.37,1.05-.56,1.81-.56,.8,0,1.42,.2,1.87,.61s.68,.97,.69,1.7h-.71c-.01-.54-.18-.95-.51-1.25s-.79-.44-1.38-.44c-.56,0-.99,.12-1.29,.38-.31,.25-.46,.6-.46,1.06,0,.35,.1,.62,.3,.82,.2,.2,.53,.36,.99,.48l.89,.22c.88,.22,1.49,.5,1.85,.83,.35,.34,.53,.8,.53,1.39,0,.68-.23,1.21-.7,1.6-.47,.39-1.1,.59-1.91,.59-.9,0-1.6-.21-2.09-.64s-.73-1.03-.73-1.82v-.05Z"/>
      </g>
      <g>
        <polygon class="cls-1" points="34.89 30.78 34.89 50.18 37.24 48.82 37.24 30.02 21.85 21.13 27.42 17.91 27.42 13.13 15.98 19.87 34.89 30.78"/>
        <polygon class="cls-1" points="25.08 21.13 38.86 29.09 38.86 47.88 42.03 46.05 42.03 27.54 28 19.44 25.08 21.13"/>
        <polygon class="cls-1" points="29.13 32.6 29.13 53.5 33.27 51.11 33.27 31.72 12.76 19.88 27.42 11.25 27.42 0 .05 15.8 .05 15.81 29.13 32.6"/>
        <polygon class="cls-1" points="29.04 .84 29.04 10.3 29.04 12.18 29.04 18.17 29.04 18.18 43.65 26.61 43.65 45.12 54.97 38.58 54.97 15.8 29.04 .84"/>
        <polygon class="cls-1" points="27.51 33.53 .05 17.68 .05 38.58 27.51 54.44 27.51 33.53"/>
      </g>
    </g>
  </g>
</svg>