<svg xmlns="http://www.w3.org/2000/svg" viewBox="0 0 506 504" fill="none" stroke="#28391A" stroke-width="1" stroke-linecap="round" stroke-linejoin="round">
  <!-- PTAHLABS 로고 라인 문양 (배경 장식용 단순화 버전) -->
  <!-- 원본 두께 표현 이중선을 제거한 싱글 라인 트레이싱. 실루엣은 원본과 동일 -->

  <!-- 왼쪽 벽 (외곽 실루엣 + 상단 모서리) -->
  <path d="M250 3 L2 147 L2 357 L252 501 L252 308" />
  <path d="M2 164 L252 308" />

  <!-- 오른쪽 벽 -->
  <path d="M267 8 L504 145 L504 356 L400 416" />
  <path d="M267 8 L267 172" />

  <!-- 상단 슬릿 -->
  <path d="M250 3 L250 109" />
  <path d="M250 122 L250 168" />

  <!-- 브래킷 1 (꺾인 패널) -->
  <path d="M250 109 L115 184 L304 293 L304 472" />

  <!-- 브래킷 2 -->
  <path d="M250 168 L198 196 L342 278 L342 450" />

  <!-- 패널 3 (직선) -->
  <path d="M267 172 L400 246 L400 416" />

  <!-- 바닥 연결선 -->
  <path d="M252 501 L304 472" />
  <path d="M304 472 L342 450" />
  <path d="M342 450 L400 416" />
</svg>
